<?xml version="1.0" standalone="no"?>
<!DOCTYPE svg PUBLIC "-//W3C//DTD SVG 20010904//EN"
 "http://www.w3.org/TR/2001/REC-SVG-20010904/DTD/svg10.dtd">
<svg version="1.0" xmlns="http://www.w3.org/2000/svg"
 width="126.000000pt" height="126.000000pt" viewBox="0 0 126.000000 126.000000"
 preserveAspectRatio="xMidYMid meet">
<metadata>
Created by potrace 1.14, written by Peter Selinger 2001-2017
</metadata>
<g transform="translate(0.000000,126.000000) scale(0.100000,-0.100000)"
fill="#000000" stroke="none">
<path d="M596 1243 c-3 -3 -24 -7 -46 -9 -23 -2 -51 -6 -63 -11 -12 -4 -25 -8
-29 -9 -5 -1 -9 -2 -10 -4 -2 -1 -11 -3 -21 -5 -31 -6 -92 -37 -100 -52 -5 -7
-12 -11 -18 -8 -12 8 -60 -30 -51 -40 4 -5 2 -5 -4 -2 -6 3 -30 -12 -54 -33
-25 -22 -41 -40 -37 -40 4 0 -7 -13 -23 -28 -16 -16 -27 -32 -23 -35 3 -4 1
-7 -5 -7 -7 0 -12 -7 -12 -15 0 -8 -5 -15 -11 -15 -6 0 -8 -7 -5 -15 3 -9 -1
-18 -10 -22 -8 -3 -13 -12 -10 -20 4 -9 2 -11 -6 -7 -7 5 -9 0 -6 -14 4 -12 2
-22 -2 -22 -7 0 -20 -43 -25 -80 0 -3 -4 -11 -9 -18 -4 -7 -3 -19 3 -26 6 -7
8 -16 4 -20 -11 -10 -10 -76 1 -76 5 0 2 -6 -9 -13 -14 -11 -15 -16 -5 -22 9
-6 11 -4 5 5 -5 9 -4 11 4 6 6 -4 8 -13 4 -19 -11 -18 -12 -36 -3 -42 5 -3 7
-12 4 -20 -4 -9 1 -18 11 -21 13 -5 14 -9 3 -15 -10 -6 -10 -11 0 -21 6 -6 12
-20 12 -31 0 -11 4 -15 12 -11 8 5 9 2 5 -9 -4 -10 0 -20 11 -26 13 -8 13 -10
3 -11 -11 0 -10 -4 4 -13 11 -9 15 -19 10 -27 -5 -9 -4 -11 3 -6 7 4 12 2 12
-4 0 -12 13 -29 50 -68 14 -14 18 -22 10 -17 -8 4 -12 5 -8 0 4 -4 18 -13 30
-19 12 -6 28 -21 34 -34 6 -12 14 -19 17 -16 4 4 9 -1 13 -10 3 -9 10 -16 15
-16 6 0 19 -9 31 -19 11 -11 27 -17 35 -14 7 3 13 1 11 -5 -2 -5 0 -9 3 -9 3
1 14 -5 24 -13 17 -13 18 -13 11 0 -4 9 -1 8 7 -2 8 -10 24 -18 36 -18 11 0
21 -4 21 -9 0 -5 14 -7 30 -6 17 1 37 -4 45 -11 10 -11 15 -11 18 -1 4 9 6 9
6 -1 1 -10 6 -10 21 -2 16 9 20 8 21 -7 0 -11 3 -13 6 -5 2 6 9 9 14 6 6 -3
16 0 24 6 10 8 15 9 15 2 0 -9 50 -10 70 -2 3 1 9 2 13 1 4 -1 10 6 13 14 6
14 8 13 21 -2 8 -10 11 -12 7 -4 -5 11 -3 13 9 8 9 -3 19 -2 22 4 4 5 11 7 16
4 5 -4 9 -1 9 5 0 6 5 8 10 5 6 -3 10 0 10 7 0 9 3 9 10 -2 7 -11 10 -11 10
-2 0 7 4 11 9 8 5 -3 11 1 15 9 3 8 12 15 21 15 8 0 24 8 35 18 11 9 23 16 25
15 3 -2 23 15 45 37 22 22 45 40 51 40 5 0 8 4 4 9 -3 6 4 15 15 21 11 6 17
16 14 22 -4 7 -3 8 4 4 13 -8 35 28 24 39 -4 5 1 5 11 2 11 -4 16 -3 12 3 -3
6 -2 10 4 10 5 0 8 9 6 20 -2 11 0 18 6 15 9 -6 13 8 10 34 -2 7 2 10 8 7 8
-5 25 39 26 69 0 6 2 12 5 15 3 3 11 16 18 29 11 19 11 22 0 15 -11 -6 -11 -5
0 8 10 13 11 22 3 37 -7 11 -7 22 -2 25 5 3 7 16 3 28 -3 14 -1 19 6 14 8 -5
10 -2 6 8 -3 9 -11 13 -17 9 -6 -4 -7 -1 -2 7 12 19 14 70 3 70 -6 0 -6 6 1
14 8 9 8 15 2 18 -6 1 -12 12 -14 23 -1 11 -7 26 -11 34 -7 10 -5 12 5 6 11
-6 12 -5 2 6 -7 7 -13 21 -13 31 0 10 -5 18 -11 18 -5 0 -8 4 -5 9 4 5 1 11
-4 13 -6 2 -12 10 -14 18 -6 31 -18 50 -29 43 -5 -3 -7 -1 -4 4 4 6 -4 22 -18
37 -13 14 -22 26 -18 26 3 0 -16 20 -43 45 -26 25 -53 45 -61 45 -8 0 -11 5
-8 10 3 6 1 10 -5 10 -6 0 -18 7 -27 15 -8 8 -19 13 -24 10 -5 -4 -9 -3 -9 2
0 13 -78 46 -94 40 -9 -4 -15 -1 -13 5 1 7 -7 12 -18 12 -11 0 -26 7 -34 14
-9 9 -17 10 -24 3 -9 -9 -15 -9 -52 4 -26 10 -92 15 -99 8z"/>
</g>
</svg>
